
<svg width="1349" height="651" xmlns="http://www.w3.org/2000/svg"><g><path d="M-108,-100L-90,625L-71,431Z" fill="#cd808b" stroke="#cd808b"/><path d="M-108,-100L-71,431L-25,261Z" fill="#d1787a" stroke="#d1787a"/><path d="M-108,-100L-25,261L-26,15Z" fill="#ce323a" stroke="#ce323a"/><path d="M-108,-100L-26,15L89,-33Z" fill="#b60923" stroke="#b60923"/><path d="M-108,-100L89,-33L180,-123Z" fill="#b0191d" stroke="#b0191d"/><path d="M89,-33L-26,15L96,136Z" fill="#d54040" stroke="#d54040"/><path d="M89,-33L96,136L179,77Z" fill="#e45c4e" stroke="#e45c4e"/><path d="M89,-33L179,77L180,-123Z" fill="#cd3339" stroke="#cd3339"/><path d="M180,-123L179,77L333,-72Z" fill="#d24344" stroke="#d24344"/><path d="M180,-123L333,-72L468,-111Z" fill="#c75848" stroke="#c75848"/><path d="M180,-123L468,-111L717,-115Z" fill="#c66e65" stroke="#c66e65"/><path d="M180,-123L717,-115L869,-122Z" fill="#c27b7a" stroke="#c27b7a"/><path d="M180,-123L869,-122L989,-124Z" fill="#b7777a" stroke="#b7777a"/><path d="M180,-123L989,-124L1363,-130Z" fill="#996973" stroke="#996973"/><path d="M333,-72L179,77L327,82Z" fill="#eb705f" stroke="#eb705f"/><path d="M333,-72L327,82L468,-111Z" fill="#dd6063" stroke="#dd6063"/><path d="M468,-111L327,82L547,93Z" fill="#ef8a83" stroke="#ef8a83"/><path d="M468,-111L547,93L631,47Z" fill="#ea8e90" stroke="#ea8e90"/><path d="M468,-111L631,47L717,-115Z" fill="#d47b84" stroke="#d47b84"/><path d="M717,-115L631,47L830,99Z" fill="#d98b95" stroke="#d98b95"/><path d="M717,-115L830,99L869,-122Z" fill="#ba6d81" stroke="#ba6d81"/><path d="M869,-122L830,99L942,102Z" fill="#bf8591" stroke="#bf8591"/><path d="M869,-122L942,102L989,-124Z" fill="#9c5d78" stroke="#9c5d78"/><path d="M989,-124L942,102L1136,27Z" fill="#93617e" stroke="#93617e"/><path d="M989,-124L1136,27L1178,-112Z" fill="#714264" stroke="#714264"/><path d="M989,-124L1178,-112L1363,-130Z" fill="#593758" stroke="#593758"/><path d="M1178,-112L1136,27L1276,-40Z" fill="#6f3464" stroke="#6f3464"/><path d="M1178,-112L1276,-40L1363,-130Z" fill="#562851" stroke="#562851"/><path d="M1276,-40L1136,27L1263,134Z" fill="#845779" stroke="#845779"/><path d="M1276,-40L1263,134L1452,87Z" fill="#7e5277" stroke="#7e5277"/><path d="M1276,-40L1452,87L1363,-130Z" fill="#621d5b" stroke="#621d5b"/><path d="M-26,15L-25,261L84,185Z" fill="#da7569" stroke="#da7569"/><path d="M-26,15L84,185L96,136Z" fill="#df695b" stroke="#df695b"/><path d="M96,136L84,185L202,175Z" fill="#e8967d" stroke="#e8967d"/><path d="M96,136L202,175L179,77Z" fill="#ec8c6f" stroke="#ec8c6f"/><path d="M179,77L202,175L327,82Z" fill="#f39475" stroke="#f39475"/><path d="M327,82L202,175L351,167Z" fill="#f9b28c" stroke="#f9b28c"/><path d="M327,82L351,167L547,93Z" fill="#fdb79a" stroke="#fdb79a"/><path d="M547,93L351,167L556,224Z" fill="#fedac0" stroke="#fedac0"/><path d="M547,93L556,224L701,219Z" fill="#fbecdd" stroke="#fbecdd"/><path d="M547,93L701,219L631,47Z" fill="#f8cebe" stroke="#f8cebe"/><path d="M631,47L701,219L830,99Z" fill="#eccabc" stroke="#eccabc"/><path d="M830,99L701,219L798,205Z" fill="#e3ded5" stroke="#e3ded5"/><path d="M830,99L798,205L936,243Z" fill="#d2d9d5" stroke="#d2d9d5"/><path d="M830,99L936,243L942,102Z" fill="#c8c6be" stroke="#c8c6be"/><path d="M942,102L936,243L1061,284Z" fill="#b4d2db" stroke="#b4d2db"/><path d="M942,102L1061,284L1136,27Z" fill="#a2a9ad" stroke="#a2a9ad"/><path d="M1136,27L1061,284L1263,134Z" fill="#959ea9" stroke="#959ea9"/><path d="M1263,134L1061,284L1269,270Z" fill="#90b3ce" stroke="#90b3ce"/><path d="M1263,134L1269,270L1445,181Z" fill="#8297b7" stroke="#8297b7"/><path d="M1263,134L1445,181L1452,87Z" fill="#807491" stroke="#807491"/><path d="M1452,87L1445,181L1449,627Z" fill="#7f8dc3" stroke="#7f8dc3"/><path d="M-25,261L-71,431L29,422Z" fill="#ce8593" stroke="#ce8593"/><path d="M-25,261L29,422L84,185Z" fill="#dc9399" stroke="#dc9399"/><path d="M84,185L29,422L285,323Z" fill="#e8aca4" stroke="#e8aca4"/><path d="M84,185L285,323L202,175Z" fill="#efb9a6" stroke="#efb9a6"/><path d="M202,175L285,323L351,167Z" fill="#f8ceb5" stroke="#f8ceb5"/><path d="M351,167L285,323L494,339Z" fill="#fce0d1" stroke="#fce0d1"/><path d="M351,167L494,339L556,224Z" fill="#feefe1" stroke="#feefe1"/><path d="M556,224L494,339L629,436Z" fill="#faf8f5" stroke="#faf8f5"/><path d="M556,224L629,436L701,219Z" fill="#f8fafb" stroke="#f8fafb"/><path d="M701,219L629,436L836,408Z" fill="#e9f4f8" stroke="#e9f4f8"/><path d="M701,219L836,408L798,205Z" fill="#e2eff5" stroke="#e2eff5"/><path d="M798,205L836,408L936,243Z" fill="#d2e7f1" stroke="#d2e7f1"/><path d="M936,243L836,408L1029,373Z" fill="#beddec" stroke="#beddec"/><path d="M936,243L1029,373L1061,284Z" fill="#abd0e5" stroke="#abd0e5"/><path d="M1061,284L1029,373L1090,398Z" fill="#9ec8e0" stroke="#9ec8e0"/><path d="M1061,284L1090,398L1269,270Z" fill="#96bcda" stroke="#96bcda"/><path d="M1269,270L1090,398L1229,461Z" fill="#86b1d6" stroke="#86b1d6"/><path d="M1269,270L1229,461L1303,438Z" fill="#77a5d1" stroke="#77a5d1"/><path d="M1269,270L1303,438L1373,341Z" fill="#81a1cd" stroke="#81a1cd"/><path d="M1269,270L1373,341L1445,181Z" fill="#809ac6" stroke="#809ac6"/><path d="M1445,181L1373,341L1439,527Z" fill="#7d92c5" stroke="#7d92c5"/><path d="M1445,181L1439,527L1449,627Z" fill="#507fc1" stroke="#507fc1"/><path d="M-71,431L-90,625L-14,503Z" fill="#765381" stroke="#765381"/><path d="M-71,431L-14,503L29,422Z" fill="#a37691" stroke="#a37691"/><path d="M29,422L-14,503L132,527Z" fill="#967993" stroke="#967993"/><path d="M29,422L132,527L285,323Z" fill="#c7a7a6" stroke="#c7a7a6"/><path d="M285,323L132,527L285,553Z" fill="#b5abb0" stroke="#b5abb0"/><path d="M285,323L285,553L355,404Z" fill="#d6cbc3" stroke="#d6cbc3"/><path d="M285,323L355,404L494,339Z" fill="#fae0d3" stroke="#fae0d3"/><path d="M355,404L285,553L352,585Z" fill="#a1adbb" stroke="#a1adbb"/><path d="M355,404L352,585L582,580Z" fill="#a2bcd1" stroke="#a2bcd1"/><path d="M355,404L582,580L494,339Z" fill="#d1e3e7" stroke="#d1e3e7"/><path d="M494,339L582,580L629,436Z" fill="#c8e7f4" stroke="#c8e7f4"/><path d="M629,436L582,580L643,464Z" fill="#aad8f2" stroke="#aad8f2"/><path d="M629,436L643,464L836,408Z" fill="#c4eaf8" stroke="#c4eaf8"/><path d="M836,408L643,464L845,461Z" fill="#b4e1f5" stroke="#b4e1f5"/><path d="M836,408L845,461L1029,373Z" fill="#aadbee" stroke="#aadbee"/><path d="M1029,373L845,461L971,588Z" fill="#79c0e4" stroke="#79c0e4"/><path d="M1029,373L971,588L1113,514Z" fill="#56a9d9" stroke="#56a9d9"/><path d="M1029,373L1113,514L1090,398Z" fill="#79bcdf" stroke="#79bcdf"/><path d="M1090,398L1113,514L1229,461Z" fill="#5fa7d6" stroke="#5fa7d6"/><path d="M1303,438L1229,461L1275,672Z" fill="#2c7ac2" stroke="#2c7ac2"/><path d="M1303,438L1275,672L1439,527Z" fill="#1e67b9" stroke="#1e67b9"/><path d="M1303,438L1439,527L1373,341Z" fill="#568ec9" stroke="#568ec9"/><path d="M-14,503L-90,625L31,663Z" fill="#653c76" stroke="#653c76"/><path d="M-14,503L31,663L132,527Z" fill="#775a85" stroke="#775a85"/><path d="M132,527L31,663L133,771Z" fill="#654479" stroke="#654479"/><path d="M132,527L133,771L286,632Z" fill="#705d87" stroke="#705d87"/><path d="M132,527L286,632L285,553Z" fill="#8a839e" stroke="#8a839e"/><path d="M285,553L286,632L352,585Z" fill="#8b8da8" stroke="#8b8da8"/><path d="M352,585L286,632L417,717Z" fill="#7d80a7" stroke="#7d80a7"/><path d="M352,585L417,717L461,657Z" fill="#7e88b3" stroke="#7e88b3"/><path d="M352,585L461,657L582,580Z" fill="#8aa1c7" stroke="#8aa1c7"/><path d="M582,580L461,657L500,784Z" fill="#7d8dc2" stroke="#7d8dc2"/><path d="M582,580L500,784L665,626Z" fill="#7c97cf" stroke="#7c97cf"/><path d="M582,580L665,626L643,464Z" fill="#91bee6" stroke="#91bee6"/><path d="M643,464L665,626L845,461Z" fill="#92c8eb" stroke="#92c8eb"/><path d="M845,461L665,626L797,689Z" fill="#74a8db" stroke="#74a8db"/><path d="M845,461L797,689L971,588Z" fill="#63a2d7" stroke="#63a2d7"/><path d="M971,588L797,689L917,707Z" fill="#4a81c6" stroke="#4a81c6"/><path d="M971,588L917,707L1108,726Z" fill="#2f6bba" stroke="#2f6bba"/><path d="M971,588L1108,726L1113,514Z" fill="#2b79c1" stroke="#2b79c1"/><path d="M1113,514L1108,726L1275,672Z" fill="#185fb4" stroke="#185fb4"/><path d="M1113,514L1275,672L1229,461Z" fill="#2c7ac2" stroke="#2c7ac2"/><path d="M1439,527L1275,672L1449,627Z" fill="#0b48a8" stroke="#0b48a8"/><path d="M-90,625L-39,876L31,663Z" fill="#550b5d" stroke="#550b5d"/><path d="M31,663L-39,876L133,771Z" fill="#5e165c" stroke="#5e165c"/><path d="M286,632L133,771L363,816Z" fill="#764a82" stroke="#764a82"/><path d="M286,632L363,816L417,717Z" fill="#7c6499" stroke="#7c6499"/><path d="M417,717L363,816L500,784Z" fill="#7e6a9f" stroke="#7e6a9f"/><path d="M417,717L500,784L461,657Z" fill="#7f77b1" stroke="#7f77b1"/><path d="M665,626L500,784L668,776Z" fill="#7a80c5" stroke="#7a80c5"/><path d="M665,626L668,776L797,689Z" fill="#6e86c9" stroke="#6e86c9"/><path d="M797,689L668,776L833,839Z" fill="#6571b9" stroke="#6571b9"/><path d="M797,689L833,839L917,707Z" fill="#5468b9" stroke="#5468b9"/><path d="M917,707L833,839L945,784Z" fill="#4963af" stroke="#4963af"/><path d="M917,707L945,784L1108,726Z" fill="#3154af" stroke="#3154af"/><path d="M1108,726L945,784L1116,856Z" fill="#21499f" stroke="#21499f"/><path d="M1108,726L1116,856L1317,791Z" fill="#133695" stroke="#133695"/><path d="M1108,726L1317,791L1275,672Z" fill="#0d329d" stroke="#0d329d"/><path d="M1275,672L1317,791L1449,627Z" fill="#002e9a" stroke="#002e9a"/><path d="M1449,627L1317,791L1369,883Z" fill="#00188a" stroke="#00188a"/><path d="M-39,876L168,882L133,771Z" fill="#642153" stroke="#642153"/><path d="M133,771L168,882L363,816Z" fill="#72416a" stroke="#72416a"/><path d="M168,882L1369,883L1116,856Z" fill="#4c649e" stroke="#4c649e"/><path d="M168,882L1116,856L833,839Z" fill="#6e75a9" stroke="#6e75a9"/><path d="M168,882L833,839L363,816Z" fill="#7f6e98" stroke="#7f6e98"/><path d="M363,816L833,839L500,784Z" fill="#7c79af" stroke="#7c79af"/><path d="M500,784L833,839L668,776Z" fill="#7378b6" stroke="#7378b6"/><path d="M833,839L1116,856L945,784Z" fill="#3858a0" stroke="#3858a0"/><path d="M1116,856L1369,883L1317,791Z" fill="#092985" stroke="#092985"/></g><filter id="noise"><feTurbulence type="fractalNoise" in="fillPaint" fill="#F00" baseFrequency="0.7" numOctaves="3" stitchTiles="stitch"/><feComponentTransfer><feFuncR type="linear" slope="2" intercept="-.5"/><feFuncG type="linear" slope="2" intercept="-.5"/><feFuncB type="linear" slope="2" intercept="-.5"/></feComponentTransfer><feColorMatrix type="matrix" values="0.3333 0.3333 0.3333 0 0 
 0.3333 0.3333 0.3333 0 0 
 0.3333 0.3333 0.3333 0 0 
 0 0 0 1 0"/></filter><rect opacity="0.20000000000000007" width="100%" height="100%" filter="url(#noise)"/></svg>